# xmcd CD database file
#
# Track frame offsets:
#	150
#	24504
#	46977
#	71718
#	112760
#	144457
#	176498
#
# Disc length: 3124 seconds
#
# Revision: 0
# Processed by: cddbd v1.5.2PL0 Copyright (c) Steve Scherf et al.
# Submitted via: CDex 1.51
#
DISCID=570c3207
DTITLE=David Antony Clark - Shaman Dancing
DYEAR=2006
DGENRE=New Age
TTITLE0=The Chanting Sun
TTITLE1=Spirit Stalking
TTITLE2=The Lake Of Souls
TTITLE3=Hymn To The Sky Father
TTITLE4=The Garden Of Visions
TTITLE5=The Healing Mask
TTITLE6=Shaman Dancing
EXTD=YEAR: 2006
EXTT0=
EXTT1=
EXTT2=
EXTT3=
EXTT4=
EXTT5=
EXTT6=
PLAYORDER=
